<?xml version="1.0" encoding="UTF-8"?>
<svg id="Layer_1" data-name="Layer 1" xmlns="http://www.w3.org/2000/svg" viewBox="0 0 1920 580">
  <defs>
    <style>
      .cls-1 {
        fill: #211c40;
      }
    </style>
  </defs>
  <path class="cls-1" d="M937.53,208.19l-114.6,195.83c-1.45,2.48-5.24,1.63-5.5-1.24l-16.8-193.42c-.13-1.52-1.41-2.7-2.95-2.7l-44.87-.02c-1.78,0-3.15,1.55-2.94,3.31l30.4,248.61c.18,1.48,1.44,2.6,2.93,2.6l47.67.02c1.02,0,1.97-.52,2.51-1.39l155.11-248.53c1.23-1.97-.19-4.52-2.51-4.52h-45.91c-1.05-.02-2.02.54-2.56,1.45"/>
  <path class="cls-1" d="M1058.66,310.74l81.89-143.64c1.38-2.43,5.05-1.76,5.49,1l22.73,143.64c.28,1.79-1.1,3.42-2.92,3.42h-104.62c-2.27,0-3.69-2.45-2.57-4.42M1128.61,111.92c-1.04,0-2,.54-2.53,1.43l-207.84,345.92-1.94,3.22h54.21c1.05,0,2.03-.56,2.56-1.47l58.92-101.34c.53-.91,1.5-1.47,2.56-1.47h138.71c1.46,0,2.7,1.07,2.93,2.51l15.23,99.27c.22,1.44,1.46,2.51,2.92,2.51h45.83c1.84,0,3.24-1.67,2.91-3.48l-62.27-344.66c-.25-1.41-1.48-2.43-2.91-2.43h-49.28Z"/>
  <path class="cls-1" d="M429.03,111.92h-61.62c-1.63,0-2.96,1.32-2.96,2.96v264.34c0,2.94-3.84,4.08-5.44,1.61L185.27,113.27c-.55-.84-1.48-1.35-2.48-1.35h-47.71c-1.63,0-2.96,1.32-2.96,2.96v296.01c0,2.04-1.66,3.7-3.7,3.7h-12.96c-1.63,0-2.96,1.33-2.96,2.96v41.99c0,1.63,1.33,2.96,2.96,2.96h61.61c1.63,0,2.96-1.32,2.96-2.96V198.08c0-2.94,3.83-4.08,5.43-1.61l172.55,265.07.63.97h50.76c1.63,0,2.96-1.32,2.96-2.96V163.54c0-2.05,1.66-3.7,3.7-3.7h13c1.62,0,2.93-1.31,2.93-2.94v-42.02c0-1.63-1.33-2.96-2.96-2.96"/>
  <path class="cls-1" d="M1472.39,369.16c-2.67,11.02-7.04,20.97-13.02,29.61-5.92,8.59-13.69,15.63-23.05,20.94-9.34,5.28-20.89,7.98-34.36,7.98s-24.19-2.54-33.69-7.52c-9.52-4.99-17.45-11.79-23.53-20.22-6.13-8.48-10.75-18.3-13.74-29.16-3.01-10.88-4.54-22.2-4.54-33.61,0-12.11,1.28-24.03,3.84-35.43,2.51-11.34,6.64-21.55,12.33-30.36,5.6-8.72,13.18-15.82,22.54-21.13,9.34-5.28,20.89-7.98,34.36-7.98s25.69,2.61,35.37,7.76c9.68,5.14,17.68,12.03,23.77,20.46,6.11,8.49,10.65,18.44,13.47,29.59,2.86,11.26,4.32,23.07,4.32,35.13,0,11.39-1.38,22.81-4.08,33.93M1534.71,111.92h-56.74c-.53,0-1.07.16-1.49.43-.88.5-1.47,1.44-1.47,2.53v114.23c0,2.72-3.34,3.97-5.15,1.95-2.8-3.06-5.87-5.87-9.15-8.35-6.72-5.1-13.98-9.26-21.55-12.41-7.58-3.12-15.23-5.36-22.78-6.67-7.55-1.31-14.7-1.97-21.21-1.97-19.31,0-36.52,3.57-51.14,10.65-14.6,7.07-26.92,16.73-36.6,28.7-9.68,11.98-16.99,26.17-21.74,42.2-4.72,15.95-7.12,33.13-7.12,51.06s2.48,35.08,7.39,51.06c4.91,16.03,12.27,30.31,21.93,42.42,9.71,12.16,22.01,21.98,36.63,29.21,14.62,7.21,31.99,10.88,51.62,10.88,17.66,0,34.09-3.17,48.85-9.39,10.03-4.24,18.36-10.32,24.84-18.19,1.76-2.11,5.2-.83,5.2,1.92v17.37c0,1.07.61,1.97,1.47,2.48v.48h58.24c1.62,0,2.94-1.31,2.94-2.93v-42.02c0-1.63-1.33-2.96-2.96-2.96h-10.48c-2.05,0-3.71-1.66-3.71-3.71v-247.35c0-2.05,1.66-3.7,3.7-3.7h10.52c1.62,0,2.94-1.31,2.94-2.94v-42.04c0-1.62-1.31-2.94-2.94-2.94"/>
  <path class="cls-1" d="M588.27,423.15c-48.71,0-88.16-39.47-88.16-88.16s39.45-88.13,88.16-88.13,88.14,39.47,88.14,88.13-39.48,88.16-88.14,88.16M588.27,201.9c-73.52,0-133.09,59.6-133.09,133.09s59.57,133.09,133.09,133.09,133.09-59.6,133.09-133.09-59.6-133.09-133.09-133.09"/>
  <path class="cls-1" d="M1743.34,373.11c0,5.47-1.41,11.42-4.19,17.71-2.77,6.3-7.18,12.22-13.07,17.63-5.92,5.42-13.71,10-23.1,13.58-9.42,3.57-20.89,5.42-34.15,5.42-6.32,0-12.35-.64-17.98-1.89-5.55-1.23-10.43-3.23-14.56-5.95-4.08-2.72-7.44-6.3-10-10.67-2.57-4.29-3.85-9.71-3.85-16.06,0-9.73,2.22-17.5,6.59-23.05,4.43-5.65,10.27-10.06,17.34-13.13,7.25-3.12,15.58-5.42,24.7-6.83,9.39-1.44,18.73-2.75,27.83-3.86,9.23-1.12,18.19-2.59,26.62-4.38,5.07-1.07,9.6-2.51,13.58-4.34,1.97-.91,4.24.48,4.24,2.67v33.16ZM1804.54,420.17h-11.34c-1.84,0-3.45-1.36-3.65-3.2-.48-4.03-.72-9.2-.72-15.47v-128.74c0-14.83-2.88-27.1-8.56-36.44-5.68-9.31-13.29-16.65-22.62-21.8-9.23-5.1-19.66-8.54-31.02-10.17-11.23-1.63-22.68-2.46-34.01-2.46-14.35,0-27.96,1.49-40.52,4.43-12.62,2.94-24.03,7.87-33.93,14.62-9.95,6.8-18.01,15.77-23.96,26.67-5.44,9.98-8.69,22.17-9.71,36.23-.16,2.16,1.52,4,3.68,4.03l38.1.16c1.89,0,3.55-1.44,3.71-3.34,1.47-15.74,7.39-26.7,17.61-32.52,11.25-6.4,25.58-9.66,42.6-9.66,6.32,0,12.83.48,19.31,1.44,6.35.93,12.17,2.8,17.26,5.58,4.96,2.72,9.1,6.72,12.3,11.87,3.17,5.13,4.78,12.09,4.78,20.7,0,7.21-2,12.46-6.08,16.11-4.27,3.82-10.17,6.75-17.58,8.75-7.6,2.08-16.54,3.68-26.6,4.8-10.19,1.12-21.1,2.86-32.38,5.09-10.7,1.95-21.29,4.43-31.5,7.34-10.35,2.96-19.72,7.39-27.8,13.18-8.17,5.82-14.81,13.47-19.82,22.78-4.99,9.34-7.52,21.42-7.52,35.94,0,12.88,2.29,24.03,6.78,33.18,4.48,9.18,10.67,16.7,18.35,22.36,7.6,5.63,16.76,9.84,27.16,12.48,10.32,2.61,21.37,3.95,32.78,3.95,17.63,0,34.31-3.07,49.54-9.13,11.93-4.74,22.84-11.95,32.52-21.44,1.47-1.42,3.79-.96,4.67.67v26.22c0,2.03,1.65,3.68,3.68,3.68h54.55c1.6,0,2.94-1.31,2.94-2.94v-42.02c0-1.63-1.33-2.96-2.96-2.96"/>
</svg>